<svg xmlns="http://www.w3.org/2000/svg" xmlns:xlink="http://www.w3.org/1999/xlink" width="40" height="40" viewBox="0 0 40 40"><defs><path id="3y7ma" d="M608 10630c0-11.046 8.954-20 20-20s20 8.954 20 20-8.954 20-20 20-20-8.954-20-20z"/><path id="3y7mb" d="M618.888 10623.716a1 1 0 0 1 0-1.414l1.414-1.414a1 1 0 0 1 1.414 0l6.364 6.364 6.364-6.364a1 1 0 0 1 1.414 0l1.414 1.414a1 1 0 0 1 0 1.414l-6.364 6.364 6.364 6.364a1 1 0 0 1 0 1.414l-1.414 1.414a1 1 0 0 1-1.414 0l-6.364-6.364-6.364 6.364a1 1 0 0 1-1.414 0l-1.414-1.414a1 1 0 0 1 0-1.414l6.364-6.364z"/></defs><g><g opacity=".3" transform="translate(-608 -10610)"><use xlink:href="#3y7ma"/></g><g transform="translate(-608 -10610)"><use xlink:href="#3y7mb"/></g></g></svg>